<svg xmlns="http://www.w3.org/2000/svg" width="20" height="20" viewBox="0 0 20 20" fill="none">
<path d="M13.75 2.5H6.25C4.17893 2.5 2.5 4.17893 2.5 6.25V13.75C2.5 15.8211 4.17893 17.5 6.25 17.5H13.75C15.8211 17.5 17.5 15.8211 17.5 13.75V6.25C17.5 4.17893 15.8211 2.5 13.75 2.5Z" fill="white" stroke="white" stroke-linecap="round" stroke-linejoin="round"/>
<path d="M13.545 10.1055C13.6543 10.8424 13.5284 11.5949 13.1853 12.2562C12.8422 12.9174 12.2994 13.4536 11.634 13.7885C10.9686 14.1234 10.2145 14.24 9.479 14.1217C8.74352 14.0033 8.06409 13.6561 7.53733 13.1293C7.01058 12.6026 6.66333 11.9231 6.54498 11.1876C6.42664 10.4522 6.54321 9.69809 6.87813 9.03268C7.21305 8.36728 7.74925 7.82442 8.41048 7.48132C9.07171 7.13822 9.82429 7.01235 10.5612 7.12163C11.3128 7.23309 12.0087 7.58334 12.546 8.12065C13.0833 8.65795 13.4336 9.35383 13.545 10.1055Z" stroke="#f16371" stroke-width="1.5" stroke-linecap="round" stroke-linejoin="round"/>
<path d="M14.5834 5.41669H14.5917" stroke="#f16371" stroke-width="2" stroke-linecap="round" stroke-linejoin="round"/>
</svg>