<svg width="186" height="36" viewBox="0 0 186 36" fill="none" xmlns="http://www.w3.org/2000/svg">
<path d="M41.4038 24.1607C41.2318 24.1607 41.1445 24.0683 41.1445 23.8834V11.5197C41.1445 11.3349 41.2293 11.2424 41.4038 11.2424H45.1314C46.5588 11.2424 47.6499 11.6147 48.4072 12.3592C49.1645 13.1037 49.5419 14.1023 49.5419 15.3577C49.5419 16.6131 49.1645 17.6117 48.4072 18.3562C47.6499 19.1007 46.5588 19.4729 45.1314 19.4729H43.2111V23.8834C43.2111 24.0683 43.1187 24.1607 42.9339 24.1607H41.4013H41.4038ZM43.2111 17.6297H45.0364C46.7103 17.6297 47.5472 16.8723 47.5472 15.3603C47.5472 13.8482 46.7103 13.0908 45.0364 13.0908H43.2111V17.6297Z" fill="#282828"/>
<path d="M64.449 23.8293C64.5851 24.05 64.5235 24.1604 64.2642 24.1604H62.6391C62.4902 24.1604 62.3824 24.0988 62.308 23.9756L59.4122 19.4727H57.954V23.8832C57.954 24.068 57.8616 24.1604 57.6767 24.1604H56.1441C55.9721 24.1604 55.8848 24.068 55.8848 23.8832V11.5194C55.8848 11.3346 55.9695 11.2422 56.1441 11.2422H59.8717C61.299 11.2422 62.3901 11.6144 63.1474 12.3589C63.9048 13.1034 64.2822 14.1021 64.2822 15.3574C64.2822 16.3407 64.0434 17.175 63.5633 17.8579C63.0833 18.5408 62.3824 19.0106 61.4608 19.2699L64.449 23.8293ZM57.954 13.0906V17.6294H59.7792C61.4531 17.6294 62.29 16.8721 62.29 15.36C62.29 13.8479 61.4531 13.0906 59.7792 13.0906H57.954Z" fill="#282828"/>
<path d="M72.218 24.1607C72.046 24.1607 71.9587 24.0683 71.9587 23.8834V11.5197C71.9587 11.3349 72.0435 11.2424 72.218 11.2424H78.6207C78.7927 11.2424 78.8774 11.3349 78.8774 11.5197V12.811C78.8774 12.9958 78.7927 13.0883 78.6207 13.0883H74.0253V16.631H78.3614C78.5462 16.631 78.6386 16.7234 78.6386 16.9083V18.2176C78.6386 18.3896 78.5462 18.4743 78.3614 18.4743H74.0253V22.3123H78.6207C78.8055 22.3123 78.8979 22.4047 78.8979 22.5895V23.8809C78.8979 24.0657 78.8055 24.1581 78.6207 24.1581H72.218V24.1607Z" fill="#282828"/>
<path d="M90.3201 24.384C89.4088 24.384 88.6129 24.1992 87.93 23.8295C87.2472 23.4598 86.7029 22.9874 86.2973 22.4072C86.1997 22.2712 86.2126 22.1377 86.3332 22.0016L87.1086 21.1159C87.2446 20.9568 87.3858 20.9491 87.5321 21.0979C88.3305 22.0196 89.2547 22.4817 90.2996 22.4817C90.9773 22.4817 91.5087 22.3251 91.8964 22.0119C92.284 21.6987 92.4766 21.2648 92.4766 20.7103C92.4766 20.2071 92.3251 19.8118 92.0248 19.5294C91.7244 19.247 91.2417 18.9518 90.5768 18.6437L89.0083 17.9069C87.373 17.1316 86.554 16.0123 86.554 14.549C86.554 13.4913 86.916 12.6518 87.6425 12.0305C88.369 11.4093 89.2727 11.0986 90.3561 11.0986C91.7937 11.0986 93.0054 11.6583 93.9913 12.7776C94.1273 12.9137 94.1273 13.0549 93.9913 13.2012L93.2339 14.1048C93.1107 14.264 92.9695 14.2768 92.8103 14.1408C92.0479 13.3783 91.2546 12.9958 90.4305 12.9958C89.876 12.9958 89.4267 13.1319 89.0827 13.4014C88.7387 13.671 88.5667 14.0535 88.5667 14.5464C88.5667 14.952 88.69 15.2858 88.9364 15.5425C89.1829 15.7992 89.5885 16.0662 90.1533 16.3358L91.5729 17.0007C92.4946 17.4422 93.2108 17.9351 93.7217 18.4768C94.2326 19.0185 94.4867 19.763 94.4867 20.7103C94.4867 21.8655 94.0862 22.7692 93.2878 23.4136C92.4869 24.058 91.4985 24.3814 90.3176 24.3814L90.3201 24.384Z" fill="#282828"/>
<path d="M104.121 24.384C103.21 24.384 102.414 24.1992 101.731 23.8295C101.048 23.4598 100.504 22.9874 100.098 22.4072C100.001 22.2712 100.013 22.1377 100.134 22.0016L100.909 21.1159C101.045 20.9568 101.187 20.9491 101.333 21.0979C102.131 22.0196 103.056 22.4817 104.1 22.4817C104.778 22.4817 105.31 22.3251 105.697 22.0119C106.085 21.6987 106.277 21.2648 106.277 20.7103C106.277 20.2071 106.126 19.8118 105.826 19.5294C105.525 19.247 105.043 18.9518 104.378 18.6437L102.809 17.9069C101.174 17.1316 100.355 16.0123 100.355 14.549C100.355 13.4913 100.717 12.6518 101.443 12.0305C102.17 11.4093 103.073 11.0986 104.157 11.0986C105.594 11.0986 106.806 11.6583 107.792 12.7776C107.928 12.9137 107.928 13.0549 107.792 13.2012L107.035 14.1048C106.911 14.264 106.77 14.2768 106.611 14.1408C105.849 13.3783 105.055 12.9958 104.231 12.9958C103.677 12.9958 103.228 13.1319 102.884 13.4014C102.54 13.671 102.367 14.0535 102.367 14.5464C102.367 14.952 102.491 15.2858 102.737 15.5425C102.984 15.7992 103.389 16.0662 103.954 16.3358L105.374 17.0007C106.295 17.4422 107.012 17.9351 107.522 18.4768C108.033 19.0185 108.288 19.763 108.288 20.7103C108.288 21.8655 107.887 22.7692 107.089 23.4136C106.288 24.058 105.299 24.3814 104.118 24.3814L104.121 24.384Z" fill="#282828"/>
<path d="M123.37 22.3175C123.554 22.3175 123.647 22.41 123.647 22.5948V23.8861C123.647 24.0709 123.554 24.1634 123.37 24.1634H116.058C115.886 24.1634 115.799 24.0709 115.799 23.8861V11.5224C115.799 11.3375 115.884 11.2451 116.058 11.2451H117.591C117.776 11.2451 117.868 11.3375 117.868 11.5224V22.3175H123.372H123.37Z" fill="#282828"/>
<path d="M140.014 22.474C138.728 23.7602 137.165 24.402 135.319 24.402C133.473 24.402 131.907 23.7602 130.623 22.474C129.337 21.1878 128.695 19.6167 128.695 17.7606C128.695 15.9045 129.337 14.3128 130.623 13.0266C131.909 11.743 133.475 11.0986 135.319 11.0986C137.162 11.0986 138.728 11.743 140.014 13.0266C141.3 14.3128 141.942 15.8891 141.942 17.7606C141.942 19.6321 141.3 21.1904 140.014 22.474ZM132.079 21.0543C132.947 21.9349 134.025 22.3739 135.319 22.3739C136.613 22.3739 137.686 21.9349 138.548 21.0543C139.408 20.1738 139.84 19.0775 139.84 17.7606C139.84 16.4436 139.408 15.3268 138.548 14.4489C137.686 13.5683 136.61 13.1293 135.319 13.1293C134.027 13.1293 132.947 13.5683 132.079 14.4489C131.211 15.3268 130.777 16.4307 130.777 17.7606C130.777 19.0904 131.211 20.1738 132.079 21.0543Z" fill="#282828"/>
<path d="M153.787 24.402C151.892 24.402 150.308 23.7653 149.035 22.4919C147.762 21.2186 147.125 19.6423 147.125 17.7606C147.125 15.8788 147.762 14.2974 149.035 13.0189C150.308 11.7404 151.88 11.0986 153.751 11.0986C155.51 11.0986 156.986 11.6942 158.179 12.888C158.316 13.0112 158.321 13.1447 158.197 13.2936L157.255 14.3077C157.145 14.4437 157.027 14.4489 156.904 14.3256C155.969 13.5272 154.917 13.1267 153.748 13.1267C152.457 13.1267 151.376 13.5657 150.509 14.4463C149.641 15.3243 149.207 16.4282 149.207 17.758C149.207 19.0878 149.643 20.1866 150.516 21.062C151.389 21.9349 152.496 22.3713 153.838 22.3713C154.994 22.3713 155.931 22.0478 156.642 21.4034C157.355 20.7565 157.725 19.9427 157.748 18.9569H154.521C154.349 18.9569 154.262 18.8722 154.262 18.7002V17.3703C154.262 17.1983 154.347 17.1111 154.521 17.1111H159.445C159.63 17.1111 159.722 17.2035 159.722 17.3883V18.292C159.722 20.0377 159.183 21.4933 158.108 22.6563C157.029 23.8192 155.589 24.3994 153.779 24.3994L153.787 24.402Z" fill="#282828"/>
<path d="M165.964 24.1604C165.792 24.1604 165.705 24.068 165.705 23.8832V11.5194C165.705 11.3346 165.79 11.2422 165.964 11.2422H167.497C167.682 11.2422 167.774 11.3346 167.774 11.5194V23.8832C167.774 24.068 167.682 24.1604 167.497 24.1604H165.964Z" fill="#282828"/>
<path d="M180.539 24.402C178.668 24.402 177.102 23.7653 175.833 22.4919C174.565 21.2186 173.934 19.6423 173.934 17.7606C173.934 15.8788 174.568 14.2974 175.833 13.0189C177.102 11.7404 178.668 11.0986 180.539 11.0986C182.262 11.0986 183.743 11.6891 184.985 12.87C185.122 13.0061 185.127 13.1421 185.003 13.2756L184.061 14.2897C183.951 14.4129 183.822 14.418 183.674 14.3077C182.762 13.5195 181.725 13.1267 180.554 13.1267C179.263 13.1267 178.182 13.5657 177.315 14.4463C176.447 15.3243 176.013 16.4282 176.013 17.758C176.013 19.0878 176.447 20.1866 177.315 21.062C178.182 21.9349 179.261 22.3713 180.554 22.3713C181.723 22.3713 182.762 21.9785 183.674 21.1904C183.81 21.0671 183.938 21.0671 184.061 21.1904L185.003 22.225C185.139 22.3353 185.132 22.4637 184.985 22.6126C183.756 23.8064 182.272 24.402 180.539 24.402Z" fill="#282828"/>
<path d="M13.3091 7.69238H7.68945V17.6018H13.3091V7.69238Z" fill="#282828"/>
<path d="M13.3088 3.24023C10.7442 3.45845 8.37207 4.339 6.35938 5.71247H13.3088V3.24023Z" fill="#282828"/>
<path d="M15.291 5.71289H15.6889C18.0533 5.71289 19.9351 6.29821 21.2803 7.4509C22.6512 8.63182 23.3469 10.3852 23.3469 12.6623C23.3469 13.7663 23.1415 14.7649 22.7385 15.6352C22.3329 16.508 21.7604 17.2474 21.0416 17.8353C20.3304 18.4155 19.4781 18.857 18.5077 19.1497C17.5578 19.4347 16.5027 19.581 15.368 19.581H15.2936V25.5678H26.8281C28.2734 23.306 29.1103 20.6207 29.1103 17.7377C29.1103 9.94623 22.9875 3.58466 15.291 3.20215V5.71032V5.71289Z" fill="#282828"/>
<path d="M17.9981 17.2624C18.6835 17.0416 19.2842 16.7155 19.7849 16.2945C20.2778 15.8735 20.6705 15.3575 20.9478 14.7645C21.2251 14.1689 21.3663 13.4629 21.3663 12.6645C21.3663 11.0394 20.9119 9.79432 20.0159 8.96511C19.1071 8.12049 17.6515 7.69434 15.685 7.69434H15.2871V17.6038H15.685C16.5142 17.6038 17.2921 17.4908 17.9955 17.2649L17.9981 17.2624Z" fill="#282828"/>
<path d="M13.3091 27.5497V19.5811H7.68945V30.5765C9.73553 31.6727 12.0717 32.2965 14.5568 32.2965C18.8158 32.2965 22.6486 30.4661 25.3083 27.5497H13.3091Z" fill="#282828"/>
<path d="M5.70692 6.18555C2.23861 8.84519 0 13.0323 0 17.7406C0 22.4489 2.23861 26.636 5.70692 29.2957V6.18555Z" fill="#282828"/>
</svg>
