<?xml version="1.0" encoding="UTF-8"?>
<svg width="375" height="127" id="_レイヤー_2" data-name="レイヤー 2" xmlns="http://www.w3.org/2000/svg" viewBox="0 0 410.8652931 139.7928862">
  <defs>
    <style>
      .cls-1 {
        fill: #fff;
      }
    </style>
  </defs>
  <g id="_レイヤー_2-2" data-name="レイヤー 2">
    <g>
      <path class="cls-1" d="M0,138.1167965c10.0566631-3.9907582,11.0145001-9.5777446,11.0145001-19.6344077v-35.1981957c0-2.1550082-.1595978-4.549413-.4787934-6.1457038l-5.2677283-.7183777v-1.7559042H23.5454295v1.7559042l-5.2677283,.7183777c-.3191956,1.5962908-.4790436,3.9906956-.4790436,6.1457038v34.1606224c0,13.9675598-2.8732608,19.7142066-17.2398152,22.3480707l-.5588425-1.6760897Z"/>
      <path class="cls-1" d="M61.1347156,83.2841931c-.6383912-1.83575-1.9154238-4.8686712-2.713663-6.1457038l-4.7091359-.7183777v-1.7559042h18.9958914v1.7559042l-5.0283315,.7183777c0,1.6760897,.2393967,4.150356,.8780381,6.1457038l10.4556576,32.0854131,.2393967,2.4742663h.3194458l.5585923-2.4742663,12.1319349-32.165212c.7181901-1.9954104,.8777879-4.3898152,.8777879-6.0659049l-5.5869239-.7183777v-1.7559042h17.2398152v1.7559042l-5.4273261,.7183777c-.7982392,1.2770326-2.3944674,4.3099538-3.1126575,6.1457038l-16.9208697,43.0200517h-3.2722554l-14.9253968-43.0200517Z"/>
      <path class="cls-1" d="M126.0219808,124.3088345c-.957837-.3192582-1.755826-2.1549456-2.6338641-3.3521793-2.713663,2.4742663-6.2255653,5.6668478-10.4556576,5.6668478-5.8265707,0-8.6998316-3.7512989-8.6998316-9.3383479,0-4.2301549,3.0328586-7.7419946,10.7748532-9.6575435l7.422799-1.83575c0-5.4273886,.4790436-10.4556576-3.1126575-12.5308669-3.4321033,0-7.3430001,1.9155489-9.6576686,5.3475897-2.2346195,0-3.8310978-1.6760897-3.8310978-3.9108967,0-4.7090734,5.8265707-5.2677908,11.8127393-5.2677908,6.2253151,0,11.1738477,3.3522419,11.1738477,9.4979457v16.1225055c0,2.7137256,.3191956,3.9907582,.4790436,4.6292745l4.6290869,2.0751467-1.8356249,4.7888723-6.0659674-2.2348071Zm-3.5917011-16.3619647l-2.5540652,.8779756c-5.4273261,1.83575-8.8594294,4.2301549-8.8594294,7.8217935,0,3.7512989,2.1550707,5.3475897,5.1879294,5.3475897,2.1550707,0,4.2303425-1.5962908,6.2255653-3.2723804v-10.7749783Z"/>
      <path class="cls-1" d="M140.7054794,123.9895764l5.2677283-.7183152c.3191956-1.5962908,.4787934-3.9906956,.4787934-6.1457038v-37.9917202c0-1.5962908,0-3.7512989-.3191956-5.3476053l-4.6290869-.7183152v-1.7559198l11.0940488-3.8310978h.957837c-.4787934,3.1127514-.7184403,7.2631073-.7184403,11.6529382v37.9917202c0,2.1550082,.1595978,4.549413,.4790436,6.1457038l5.2677283,.7183152v1.7559511h-17.8784566v-1.7559511Z"/>
      <path class="cls-1" d="M169.5176365,100.5241334c0-1.5962908,0-3.7512989-.3194458-5.3475897l-4.6290869-.7183152v-1.7559511l11.0940488-3.8310978h.957837c-.4787934,3.1127826-.7181901,7.2631386-.7181901,11.6529539v13.3290435c0,5.028269,1.9154238,8.1410516,6.464962,8.1410516,2.713663,0,6.3851631-1.7558886,8.4601847-3.2723804v-18.1977147c0-1.5962908,0-3.7512989-.3191956-5.3475897l-4.629337-.7183152v-1.7559511l11.094299-3.8310978h.957837c-.4787934,3.1127826-.7184403,7.2631386-.7184403,11.6529539v14.5262147c0,2.7137256,.3194458,3.9907582,.4790436,4.6292745l4.7088858,2.0751467-1.8356249,4.7888723-6.1457663-2.2348071c-1.0376359-.3990571-2.6338641-1.7558886-3.5917011-2.9531223-3.4318532,3.0329837-7.5823968,5.2677908-12.6905272,5.2677908-5.1879294,0-8.6197825-3.0329837-8.6197825-9.3383479v-16.7610218Z"/>
      <path class="cls-1" d="M237.7572062,122.552946c-2.6338641,2.2348071-7.0238044,4.0705571-12.1319349,4.0705571-9.6574184,0-15.9627826-6.1457663-15.9627826-17.4793995,0-9.8172038,4.8687337-19.7142066,15.8829837-19.7142066,8.1412392,0,12.5309294,4.3100163,13.807962,11.1740354,0,1.5962908,0,3.7512989-.3191956,5.3475897h-22.986587c-.2393967,9.3382853,3.3523044,16.0427065,12.9299239,16.0427065,3.4321033,0,5.9063696-.6385163,8.2210381-1.7558886l.5585923,2.314606Zm-5.3475272-19.3151495c.0797989-.7981141,.3191956-1.5164293,.2393967-2.6338641-.3191956-5.0283315-2.7934619-8.4603098-7.6621957-8.4603098s-8.6200327,6.0659049-8.6200327,11.0941739h16.0428316Z"/>
      <path class="cls-1" d="M265.289579,123.9895764l5.2677283-.7183152c.3992447-1.5962908,.7184403-3.9108967,.8780381-6.0659049l2.3146685-33.9211631c.1595978-2.1550082,.1595978-4.549413-.0797989-6.1457038l-5.2677283-.7183777v-1.7559042h11.892288l14.9253968,38.310994,.6383912,2.4742663h.3191956l14.6062012-40.7852603h12.0518858v1.7559042l-5.2677283,.7183777c-.2393967,1.5962908-.2393967,3.9906956-.0797989,6.1457038l3.1126575,33.9211631c.159848,2.1550082,.4790436,4.4696141,.8780381,6.0659049l5.7467718,.7183152v1.7559511h-18.8362936v-1.7559511l5.2677283-.7183152c.2393967-1.5962908,.2393967-3.9906956,.0797989-6.1457038l-2.6338641-29.9304675,.0797989-2.4742663h-.3191956l-14.9253968,41.423761h-2.713663l-14.8455979-38.9494947-.6383912-2.4742663h-.3191956l-2.2348696,32.4047338c-.1595978,2.1550082-.1595978,4.549413,.0797989,6.1457038l5.2677283,.7183152v1.7559511h-15.2445924v-1.7559511Z"/>
      <path class="cls-1" d="M355.6369472,124.3088345c-.957837-.3192582-1.755826-2.1549456-2.6338641-3.3521793-2.713663,2.4742663-6.2255653,5.6668478-10.4556576,5.6668478-5.8265707,0-8.6998316-3.7512989-8.6998316-9.3383479,0-4.2301549,3.0328586-7.7419946,10.7748532-9.6575435l7.422799-1.83575c0-5.4273886,.4790436-10.4556576-3.1126575-12.5308669-3.4321033,0-7.3430001,1.9155489-9.6576686,5.3475897-2.2348696,0-3.8310978-1.6760897-3.8310978-3.9108967,0-4.7090734,5.8265707-5.2677908,11.8124891-5.2677908,6.2255653,0,11.1740979,3.3522419,11.1740979,9.4979457v16.1225055c0,2.7137256,.3194458,3.9907582,.4790436,4.6292745l4.6290869,2.0751467-1.8356249,4.7888723-6.0659674-2.2348071Zm-3.5917011-16.3619647l-2.5540652,.8779756c-5.4273261,1.83575-8.8594294,4.2301549-8.8594294,7.8217935,0,3.7512989,2.1550707,5.3475897,5.1879294,5.3475897,2.1550707,0,4.2303425-1.5962908,6.2255653-3.2723804v-10.7749783Z"/>
      <path class="cls-1" d="M368.7242175,123.9895764l5.2677283-.7183152c.3191956-1.5962908,.4787934-3.9906956,.4787934-6.1457038v-37.9917202c0-1.5962908,0-3.7512989-.3191956-5.3476053l-4.6290869-.7183152v-1.7559198l11.0940488-3.8310978h.957837c-.4787934,3.1127514-.7184403,7.2631073-.7184403,11.6529382v37.9917202c0,2.1550082,.1595978,4.549413,.4790436,6.1457038l5.2677283,.7183152v1.7559511h-17.8784566v-1.7559511Z"/>
      <path class="cls-1" d="M392.9868365,123.9895764l5.2677283-.7183152c.3191956-1.5962908,.4787934-3.9906956,.4787934-6.1457038v-37.9917202c0-1.5962908,0-3.7512989-.3191956-5.3476053l-4.629337-.7183152v-1.7559198l11.094299-3.8310978h.957837c-.4787934,3.1127514-.7184403,7.2631073-.7184403,11.6529382v37.9917202c0,2.1550082,.159848,4.549413,.4790436,6.1457038l5.2677283,.7183152v1.7559511h-17.8784566v-1.7559511Z"/>
      <circle class="cls-1" cx="40.6864573" cy="101.1568778" r="5.6362438"/>
      <path class="cls-1" d="M237.9464801,27.6320183c0-8.0987217-6.5667937-14.6653683-14.6673311-14.6653683-1.1133086,0-2.2007081,.1269941-3.2425703,.3631208-.6767786-7.4736142-6.9558237-13.3297708-14.6037359-13.3297708-7.6483048,0-13.9273498,5.8561566-14.6037359,13.3297708-1.0418622-.2361266-2.1296542-.3631208-3.2429629-.3631208-8.1005373,0-14.6673311,6.5666465-14.6673311,14.6653683,0,6.0447831,3.6575094,11.2361833,8.8785972,13.4806622-1.3076273,2.1948197-2.0617408,4.7607586-2.0617408,7.5014371,0,8.0987217,6.5667937,14.667282,14.6673311,14.667282,4.3974906,0,8.3427487-1.9388686,11.0298424-5.0048347,2.6867011,3.0660642,6.6319592,5.0048347,11.0298424,5.0048347,8.1005373,0,14.6673311-6.5686584,14.6673311-14.667282,0-2.7405804-.7545061-5.3064702-2.0621334-7.5014371,5.2210878-2.244577,8.8785972-7.4360263,8.8785972-13.4806622Zm-16.5508483,7.1329677c-3.2586654,1.5996942-7.3248329,1.2712171-10.5407089,.5590097,3.029016,1.3129269,6.534211,3.4415507,8.2375418,6.6648363,1.501946,2.8423033,2.0519268,5.4865585,1.8422981,7.4368605l-4.6349912-.9547623-.5586171,4.6957894c-1.9125669-.4115532-4.2432134-1.749506-6.4690455-4.0430553-2.5288908-2.6054896-3.4730048-6.5751357-3.7894106-9.8543125-.3124801,3.2870771-1.2534536,7.2791483-3.7933362,9.8955316-2.2387867,2.3067983-4.5835655,3.6471065-6.5031985,4.0503668l-.5244642-4.70315-4.6385243,.9197751c-.199422-1.946131,.3529141-4.5759105,1.8462238-7.4018734,1.6958721-3.2093987,5.1779059-5.3335571,8.1982855-6.6478089-3.222157,.7182431-7.3083452,1.0559944-10.5803578-.5503242-2.8857306-1.4166126-4.8850539-3.2325109-5.8617506-4.9336335l4.3107342-1.9519213-2.3078778-4.1273582c1.7889096-.7912107,4.4606933-1.0785177,7.6098336-.5315303,3.577034,.6213291,6.6739634,3.2776556,8.8573988,5.7444724-1.6793845-2.8428921-3.2645538-6.6251875-2.7475484-10.2345588,.4553731-3.182361,1.5647561-5.6449577,2.8806272-7.0995017l3.1883966,3.4967549,3.212343-3.4706003c1.3052719,1.4571448,2.4040558,3.9093386,2.8570735,7.0733963,.5146501,3.5942086-1.0552093,7.35982-2.72635,10.1985902,2.184613-2.4755022,5.2925343-5.1516041,8.8844856-5.7755339,3.1671982-.550128,5.8523291-.2561964,7.6424163,.5459079l-2.3404606,4.1130787,4.2934614,1.9824431c-.9825852,1.6917502-2.9752349,3.4945958-5.8444778,4.9031118Z"/>
    </g>
  </g>
</svg>